<svg width="20" height="20" viewBox="0 0 20 20" fill="none" xmlns="http://www.w3.org/2000/svg">
<path opacity="0.4" d="M10.0434 1.875C11.9708 1.87499 13.4748 1.87499 14.647 2.01682C15.8398 2.16115 16.7838 2.46133 17.531 3.13379C18.2876 3.81474 18.6341 4.68956 18.7989 5.79289C18.9583 6.86017 18.9583 8.32855 18.9583 10.0521V10.0521C18.9583 11.7757 18.9583 13.1398 18.7989 14.2071C18.6341 15.3104 18.2876 16.1853 17.531 16.8662C16.7838 17.5387 15.8398 17.8389 14.647 17.9832C13.4748 18.125 11.9708 18.125 10.0434 18.125C8.11608 18.125 6.52508 18.125 5.35292 17.9832C4.16014 17.8389 3.21609 17.5387 2.46891 16.8662C1.7123 16.1853 1.36586 15.3104 1.20103 14.2071C1.0416 13.1398 1.04161 11.7757 1.04163 10.0521C1.04161 8.32851 1.0416 6.86018 1.20103 5.79289C1.36586 4.68956 1.7123 3.81474 2.46891 3.13379C3.21609 2.46133 4.16014 2.16115 5.35292 2.01682C6.52508 1.87499 8.11607 1.87499 10.0434 1.875Z" fill="#F87118"/>
<path d="M4.79177 7.91667C4.79177 6.65101 5.81779 5.625 7.08344 5.625C8.34909 5.625 9.37511 6.65101 9.37511 7.91667C9.37511 9.18232 8.34909 10.2083 7.08344 10.2083C5.81779 10.2083 4.79177 9.18232 4.79177 7.91667Z" fill="#F87118"/>
<path d="M7.06782 12.7087C6.03383 12.724 5.10657 13.2166 4.73282 14.015C4.58647 14.3276 4.2144 14.4624 3.90179 14.316C3.58917 14.1697 3.45438 13.7976 3.60073 13.485C4.23391 12.1325 5.68672 11.4789 7.04937 11.4588C8.41962 11.4386 9.89721 12.0561 10.5662 13.485C10.7125 13.7976 10.5777 14.1697 10.2651 14.316C9.95248 14.4624 9.58041 14.3276 9.43406 14.015C9.02983 13.1515 8.09421 12.6935 7.06782 12.7087Z" fill="#F87118"/>
<path fill-rule="evenodd" clip-rule="evenodd" d="M11.875 8.33398C11.875 7.98881 12.1548 7.70898 12.5 7.70898H15.8333C16.1785 7.70898 16.4583 7.98881 16.4583 8.33398C16.4583 8.67916 16.1785 8.95898 15.8333 8.95898H12.5C12.1548 8.95898 11.875 8.67916 11.875 8.33398Z" fill="#F87118"/>
<path fill-rule="evenodd" clip-rule="evenodd" d="M11.875 11.666C11.875 11.3208 12.1548 11.041 12.5 11.041H15.8333C16.1785 11.041 16.4583 11.3208 16.4583 11.666C16.4583 12.0112 16.1785 12.291 15.8333 12.291H12.5C12.1548 12.291 11.875 12.0112 11.875 11.666Z" fill="#F87118"/>
</svg>
