<svg width="20" height="20" viewBox="0 0 20 20" fill="none" xmlns="http://www.w3.org/2000/svg">
<path opacity="0.4" d="M6.71631 1.15421C6.83027 1.13889 6.93397 1.21956 6.95046 1.33336L6.9555 1.36811L6.95754 1.38122L6.96339 1.41634C7.03872 1.86849 7.10425 2.2618 7.19649 2.5761C7.29575 2.91428 7.44459 3.23183 7.73106 3.48601C8.02738 3.7489 8.36865 3.85934 8.73421 3.90987C9.07886 3.9575 9.5042 3.95845 9.99987 3.95845C10.4955 3.95845 10.9209 3.9575 11.2655 3.90987C11.6311 3.85934 11.9724 3.7489 12.2687 3.48601C12.5551 3.23183 12.704 2.91428 12.8032 2.5761C12.8955 2.2618 12.961 1.86849 13.0363 1.41635L13.0422 1.38123L13.0498 1.33157C13.0671 1.21863 13.1704 1.13899 13.2836 1.15421C14.1472 1.27031 14.8583 1.51657 15.421 2.07918C15.9836 2.6418 16.2298 3.35298 16.3459 4.21653C16.4583 5.05244 16.4583 6.11824 16.4583 7.45374V12.5466V12.5466C16.4583 13.8821 16.4583 14.9479 16.3459 15.7838C16.2298 16.6474 15.9836 17.3586 15.421 17.9212C14.8583 18.4838 14.1472 18.7301 13.2836 18.8462C12.4477 18.9585 11.3819 18.9585 10.0464 18.9585H9.95351C8.61801 18.9585 7.55221 18.9585 6.71631 18.8462C5.85275 18.7301 5.14157 18.4838 4.57896 17.9212C4.01634 17.3586 3.77009 16.6474 3.65398 15.7838C3.5416 14.9479 3.54161 13.8821 3.54163 12.5467V12.5467V7.45372V7.45371C3.54161 6.11823 3.5416 5.05243 3.65398 4.21653C3.77009 3.35298 4.01634 2.6418 4.57896 2.07918C5.14157 1.51657 5.85275 1.27031 6.71631 1.15421Z" fill="#F87118"/>
<path d="M11.7013 1.0515C11.7681 1.05291 11.8183 1.11288 11.8082 1.17896C11.7256 1.67409 11.6717 1.99074 11.6035 2.22325C11.5397 2.44062 11.483 2.51088 11.4387 2.55013C11.39 2.59332 11.3143 2.64036 11.094 2.6708C10.8529 2.70413 10.5237 2.70762 9.99951 2.70762C9.47529 2.70762 9.14612 2.70413 8.90499 2.6708C8.68476 2.64036 8.60897 2.59332 8.56029 2.55013C8.51605 2.51088 8.45934 2.44062 8.39555 2.22325C8.32742 1.99113 8.27356 1.67515 8.19126 1.18142C8.18147 1.11384 8.23286 1.05286 8.30114 1.05143C8.79897 1.041 9.34842 1.04101 9.95315 1.04102H10.0461C10.6521 1.04101 11.2026 1.041 11.7013 1.0515Z" fill="#F87118"/>
<path fill-rule="evenodd" clip-rule="evenodd" d="M9.16663 16.041C8.82145 16.041 8.54163 16.3208 8.54163 16.666C8.54163 17.0112 8.82145 17.291 9.16663 17.291H10.8333C11.1785 17.291 11.4583 17.0112 11.4583 16.666C11.4583 16.3208 11.1785 16.041 10.8333 16.041H9.16663Z" fill="#F87118"/>
</svg>
